<?xml version="1.0" encoding="UTF-8"?>
<svg xmlns="http://www.w3.org/2000/svg" xmlns:xlink="http://www.w3.org/1999/xlink" width="800px" height="341px" viewBox="0 0 793 341" version="1.1">
<g id="surface1">
<path style=" stroke:none;fill-rule:nonzero;fill:rgb(0%,0%,0%);fill-opacity:1;" d="M 13.742188 308.328125 C 23.410156 308.589844 32.902344 310.957031 41.5625 315.257812 L 73.359375 331.0625 C 96.894531 342.746094 124.542969 342.726562 148.0625 331.007812 L 179.441406 315.363281 C 198.136719 306.046875 220.117188 306.039062 238.820312 315.335938 L 258.660156 325.210938 C 289.566406 340.574219 325.871094 340.640625 356.835938 325.394531 L 377.707031 315.117188 C 396.351562 305.9375 418.210938 305.984375 436.816406 315.242188 L 456.625 325.109375 C 487.628906 340.542969 524.066406 340.578125 555.101562 325.203125 L 575.21875 315.226562 C 582.742188 311.496094 590.90625 309.226562 599.277344 308.535156 L 619.625 265.910156 C 597.730469 262.949219 575.453125 266.609375 555.65625 276.417969 L 535.535156 286.390625 C 516.863281 295.644531 494.933594 295.621094 476.277344 286.335938 L 456.457031 276.472656 C 425.546875 261.089844 389.226562 261.007812 358.246094 276.257812 L 337.375 286.542969 C 318.738281 295.714844 296.886719 295.671875 278.289062 286.425781 L 258.4375 276.550781 C 227.367188 261.105469 190.851562 261.125 159.796875 276.597656 L 128.410156 292.246094 C 117.25 297.804688 104.128906 297.8125 92.964844 292.269531 L 61.171875 276.472656 C 45.125 268.496094 27.378906 264.539062 9.460938 264.941406 L 13.75 308.328125 Z M 629.855469 332.679688 L 629.855469 330.539062 C 638.484375 315.859375 662.558594 262.917969 671.503906 240.898438 L 673.660156 235.703125 L 620.316406 122.855469 C 608.898438 98.390625 604.582031 89.523438 597.492188 81.871094 L 597.492188 80.046875 L 678.59375 80.046875 L 678.59375 81.871094 C 676.4375 83.101562 674.898438 87.382812 674.898438 91.046875 C 674.898438 98.082031 678.285156 105.425781 679.523438 109.097656 L 708.195312 179.121094 L 709.433594 179.121094 L 733.175781 117.042969 C 736.570312 108.175781 739.34375 97.773438 739.34375 90.746094 C 739.34375 85.851562 736.878906 82.792969 735.640625 81.878906 L 735.640625 80.039062 L 793 80.039062 L 793 81.878906 C 787.140625 90.746094 776.347656 115.820312 767.710938 136.3125 L 686.585938 332.671875 L 629.855469 332.671875 Z M 518.066406 227.226562 L 518.066406 225.386719 C 523.933594 215.289062 525.78125 208.875 525.78125 195.410156 L 525.78125 57.730469 C 525.78125 47.105469 523.070312 37.066406 518.996094 32.078125 L 518.996094 30.214844 C 535.117188 29.054688 575.75 12.355469 587.691406 1.425781 L 590.109375 2.601562 C 587.257812 11.246094 584.988281 38.320312 584.988281 53.242188 L 584.988281 191.753906 C 584.988281 203.679688 587.453125 214.996094 592.695312 225.695312 L 592.695312 227.234375 L 518.074219 227.234375 Z M 426.933594 227.136719 L 426.933594 225.304688 C 432.796875 215.210938 434.644531 208.796875 434.644531 195.328125 L 434.644531 126.828125 C 434.644531 116.441406 432.488281 104.78125 427.855469 98.976562 L 427.855469 97.136719 C 442.84375 96.144531 482.414062 81.460938 492.308594 72.394531 L 493.847656 73.316406 L 493.847656 191.664062 C 493.847656 203.59375 496.316406 214.902344 501.554688 225.605469 L 501.554688 227.136719 Z M 493.847656 48.929688 C 484.324219 57.414062 449.265625 72.5625 432.804688 74.542969 L 432.804688 26.804688 C 447.53125 23.179688 483.355469 8.175781 493.847656 1.191406 Z M 228.144531 186.164062 C 228.144531 158.027344 250.96875 150.078125 283.65625 145.796875 C 308.015625 142.425781 344.71875 138.761719 344.71875 126.527344 C 344.71875 115.820312 329.601562 111.238281 308.945312 111.238281 C 282.726562 111.238281 260.53125 118.574219 246.964844 125.304688 L 246.964844 84.625 C 268.550781 77.898438 290.746094 74.535156 322.511719 74.535156 C 361.980469 74.535156 403.921875 83.101562 403.921875 133.5625 L 403.921875 187.992188 C 403.921875 200.839844 404.851562 213.070312 411.320312 225.605469 L 411.320312 227.136719 L 344.710938 227.136719 L 344.710938 200.53125 C 336.082031 214.601562 317.582031 231.117188 286.429688 231.117188 C 252.515625 231.117188 228.144531 213.378906 228.144531 186.152344 Z M 287.976562 179.738281 C 287.976562 193.496094 296.914062 198.390625 309.554688 198.390625 C 322.511719 198.390625 337 193.496094 344.71875 186.464844 L 344.71875 151.601562 C 337.308594 158.027344 320.046875 161.386719 306.789062 163.226562 C 293.832031 165.367188 287.976562 170.5625 287.976562 179.738281 Z M 102.375 230.808594 C 57.96875 230.808594 30.6875 223.148438 4.472656 214.273438 L 0 167.199219 L 1.539062 166.582031 C 26.519531 181.261719 66.613281 189.214844 97.140625 189.214844 C 130.140625 189.214844 143.398438 181.261719 143.398438 169.335938 C 143.398438 158.628906 128.292969 155.882812 116.570312 154.042969 L 68.777344 146.097656 C 35.765625 140.59375 0 128.359375 0 87.074219 C 0 37.835938 51.808594 16.121094 108.855469 16.121094 C 143.699219 16.121094 178.542969 21.324219 200.128906 32.03125 L 183.183594 73.003906 C 159.742188 61.386719 130.449219 55.875 107.324219 55.875 C 78.023438 55.875 66.613281 63.527344 66.613281 73.316406 C 66.613281 84.625 80.1875 87.074219 91.589844 88.90625 L 135.070312 96.25 C 179.789062 103.285156 211.546875 117.960938 211.546875 155.882812 C 211.546875 209.398438 157.894531 230.808594 102.382812 230.808594 Z M 102.375 230.808594 "/>
</g>
</svg>
